<svg xmlns="http://www.w3.org/2000/svg" xmlns:xlink="http://www.w3.org/1999/xlink" width="500" zoomAndPan="magnify" viewBox="0 0 375 374.999991" height="500" preserveAspectRatio="xMidYMid meet" version="1.0"><defs><clipPath id="id1"><path d="M 12 58 L 165 58 L 165 351 L 12 351 Z M 12 58 " clip-rule="nonzero"/></clipPath><clipPath id="id2"><path d="M 117.34375 304.621094 C 101.769531 277.019531 98.070312 245.0625 106.929688 214.636719 C 116.039062 183.34375 137.148438 158.136719 164.964844 143.722656 C 145.746094 138.375 130.558594 123.269531 126.109375 103.417969 C 125.589844 101.085938 124.917969 98.761719 124.089844 96.445312 C 114.207031 68.84375 84.574219 53.011719 56.132812 60.09375 C 24.253906 68.03125 5.644531 100.78125 14.742188 132.035156 C 18.574219 145.199219 26.699219 155.949219 37.148438 163.199219 C 54.957031 175.5625 62.671875 197.765625 56.628906 218.589844 C 51.375 236.699219 51.015625 256.460938 56.625 275.910156 C 70.367188 323.527344 116.171875 353.96875 164.019531 350.226562 C 144.578125 339.90625 128.4375 324.289062 117.34375 304.621094 Z M 117.34375 304.621094 " clip-rule="nonzero"/></clipPath><linearGradient x1="111.918459" gradientTransform="matrix(0.699819, 0, 0, 0.70006, 12.434315, 13.45542)" y1="55.022681" x2="105.862066" gradientUnits="userSpaceOnUse" y2="488.022566" id="id3"><stop stop-opacity="1" stop-color="rgb(76.329041%, 0.537109%, 32.713318%)" offset="0"/><stop stop-opacity="1" stop-color="rgb(76.187134%, 0.596619%, 32.691956%)" offset="0.00735246"/><stop stop-opacity="1" stop-color="rgb(76.045227%, 0.657654%, 32.670593%)" offset="0.015625"/><stop stop-opacity="1" stop-color="rgb(75.901794%, 0.718689%, 32.649231%)" offset="0.03125"/><stop stop-opacity="1" stop-color="rgb(75.616455%, 0.839233%, 32.608032%)" offset="0.046875"/><stop stop-opacity="1" stop-color="rgb(75.331116%, 0.959778%, 32.566833%)" offset="0.0625"/><stop stop-opacity="1" stop-color="rgb(75.047302%, 1.080322%, 32.524109%)" offset="0.078125"/><stop stop-opacity="1" stop-color="rgb(74.761963%, 1.200867%, 32.48291%)" offset="0.09375"/><stop stop-opacity="1" stop-color="rgb(74.476624%, 1.321411%, 32.440186%)" offset="0.109375"/><stop stop-opacity="1" stop-color="rgb(74.191284%, 1.443481%, 32.398987%)" offset="0.125"/><stop stop-opacity="1" stop-color="rgb(73.907471%, 1.564026%, 32.357788%)" offset="0.140625"/><stop stop-opacity="1" stop-color="rgb(73.622131%, 1.68457%, 32.315063%)" offset="0.15625"/><stop stop-opacity="1" stop-color="rgb(73.336792%, 1.805115%, 32.273865%)" offset="0.171875"/><stop stop-opacity="1" stop-color="rgb(73.051453%, 1.925659%, 32.23114%)" offset="0.1875"/><stop stop-opacity="1" stop-color="rgb(72.767639%, 2.046204%, 32.189941%)" offset="0.203125"/><stop stop-opacity="1" stop-color="rgb(72.4823%, 2.168274%, 32.147217%)" offset="0.21875"/><stop stop-opacity="1" stop-color="rgb(72.19696%, 2.288818%, 32.106018%)" offset="0.234375"/><stop stop-opacity="1" stop-color="rgb(71.911621%, 2.409363%, 32.064819%)" offset="0.25"/><stop stop-opacity="1" stop-color="rgb(71.627808%, 2.529907%, 32.022095%)" offset="0.265625"/><stop stop-opacity="1" stop-color="rgb(71.342468%, 2.650452%, 31.980896%)" offset="0.28125"/><stop stop-opacity="1" stop-color="rgb(71.057129%, 2.770996%, 31.938171%)" offset="0.296875"/><stop stop-opacity="1" stop-color="rgb(70.77179%, 2.893066%, 31.896973%)" offset="0.3125"/><stop stop-opacity="1" stop-color="rgb(70.48645%, 3.013611%, 31.855774%)" offset="0.328125"/><stop stop-opacity="1" stop-color="rgb(70.202637%, 3.134155%, 31.813049%)" offset="0.34375"/><stop stop-opacity="1" stop-color="rgb(69.917297%, 3.2547%, 31.771851%)" offset="0.359375"/><stop stop-opacity="1" stop-color="rgb(69.631958%, 3.375244%, 31.729126%)" offset="0.375"/><stop stop-opacity="1" stop-color="rgb(69.346619%, 3.495789%, 31.687927%)" offset="0.390625"/><stop stop-opacity="1" stop-color="rgb(69.062805%, 3.617859%, 31.646729%)" offset="0.40625"/><stop stop-opacity="1" stop-color="rgb(68.777466%, 3.738403%, 31.604004%)" offset="0.421875"/><stop stop-opacity="1" stop-color="rgb(68.492126%, 3.858948%, 31.562805%)" offset="0.4375"/><stop stop-opacity="1" stop-color="rgb(68.206787%, 3.979492%, 31.520081%)" offset="0.453125"/><stop stop-opacity="1" stop-color="rgb(67.922974%, 4.100037%, 31.478882%)" offset="0.46875"/><stop stop-opacity="1" stop-color="rgb(67.637634%, 4.220581%, 31.437683%)" offset="0.484375"/><stop stop-opacity="1" stop-color="rgb(67.352295%, 4.342651%, 31.394958%)" offset="0.5"/><stop stop-opacity="1" stop-color="rgb(67.066956%, 4.463196%, 31.35376%)" offset="0.515625"/><stop stop-opacity="1" stop-color="rgb(66.783142%, 4.58374%, 31.311035%)" offset="0.53125"/><stop stop-opacity="1" stop-color="rgb(66.497803%, 4.704285%, 31.269836%)" offset="0.546875"/><stop stop-opacity="1" stop-color="rgb(66.212463%, 4.824829%, 31.228638%)" offset="0.5625"/><stop stop-opacity="1" stop-color="rgb(65.927124%, 4.946899%, 31.185913%)" offset="0.578125"/><stop stop-opacity="1" stop-color="rgb(65.641785%, 5.067444%, 31.144714%)" offset="0.59375"/><stop stop-opacity="1" stop-color="rgb(65.357971%, 5.187988%, 31.10199%)" offset="0.609375"/><stop stop-opacity="1" stop-color="rgb(65.072632%, 5.308533%, 31.060791%)" offset="0.625"/><stop stop-opacity="1" stop-color="rgb(64.787292%, 5.429077%, 31.019592%)" offset="0.640625"/><stop stop-opacity="1" stop-color="rgb(64.501953%, 5.549622%, 30.976868%)" offset="0.65625"/><stop stop-opacity="1" stop-color="rgb(64.21814%, 5.671692%, 30.935669%)" offset="0.671875"/><stop stop-opacity="1" stop-color="rgb(63.9328%, 5.792236%, 30.892944%)" offset="0.6875"/><stop stop-opacity="1" stop-color="rgb(63.647461%, 5.912781%, 30.851746%)" offset="0.703125"/><stop stop-opacity="1" stop-color="rgb(63.362122%, 6.033325%, 30.810547%)" offset="0.71875"/><stop stop-opacity="1" stop-color="rgb(63.078308%, 6.15387%, 30.767822%)" offset="0.734375"/><stop stop-opacity="1" stop-color="rgb(62.792969%, 6.274414%, 30.726624%)" offset="0.75"/><stop stop-opacity="1" stop-color="rgb(62.507629%, 6.396484%, 30.683899%)" offset="0.765625"/><stop stop-opacity="1" stop-color="rgb(62.22229%, 6.517029%, 30.6427%)" offset="0.78125"/><stop stop-opacity="1" stop-color="rgb(61.938477%, 6.637573%, 30.599976%)" offset="0.796875"/><stop stop-opacity="1" stop-color="rgb(61.653137%, 6.758118%, 30.558777%)" offset="0.8125"/><stop stop-opacity="1" stop-color="rgb(61.367798%, 6.878662%, 30.517578%)" offset="0.828125"/><stop stop-opacity="1" stop-color="rgb(61.082458%, 6.999207%, 30.474854%)" offset="0.84375"/><stop stop-opacity="1" stop-color="rgb(60.798645%, 7.121277%, 30.433655%)" offset="0.859375"/><stop stop-opacity="1" stop-color="rgb(60.513306%, 7.241821%, 30.39093%)" offset="0.875"/><stop stop-opacity="1" stop-color="rgb(60.227966%, 7.362366%, 30.349731%)" offset="0.890625"/><stop stop-opacity="1" stop-color="rgb(59.942627%, 7.48291%, 30.308533%)" offset="0.90625"/><stop stop-opacity="1" stop-color="rgb(59.657288%, 7.603455%, 30.265808%)" offset="0.921875"/><stop stop-opacity="1" stop-color="rgb(59.373474%, 7.723999%, 30.224609%)" offset="0.9375"/><stop stop-opacity="1" stop-color="rgb(59.214783%, 7.791138%, 30.200195%)" offset="0.992648"/><stop stop-opacity="1" stop-color="rgb(59.199524%, 7.798767%, 30.198669%)" offset="1"/></linearGradient><clipPath id="id4"><path d="M 115 58 L 363 58 L 363 351 L 115 351 Z M 115 58 " clip-rule="nonzero"/></clipPath><clipPath id="id5"><path d="M 248.667969 103.417969 C 249.1875 101.085938 249.863281 98.761719 250.691406 96.445312 C 260.570312 68.84375 290.203125 53.011719 318.644531 60.09375 C 350.523438 68.03125 369.132812 100.78125 360.035156 132.035156 C 356.203125 145.199219 348.078125 155.949219 337.632812 163.199219 C 319.820312 175.5625 312.105469 197.765625 318.148438 218.589844 C 323.402344 236.699219 323.761719 256.460938 318.152344 275.910156 C 302.664062 329.589844 246.425781 361.480469 192.449219 347.128906 C 136.203125 332.175781 103.574219 273.957031 119.757812 218.375 C 131.136719 179.285156 163.578125 152.058594 201.128906 145.464844 C 201.445312 145.410156 201.769531 145.359375 202.109375 145.3125 C 224.894531 142.246094 243.640625 125.859375 248.667969 103.417969 Z M 248.667969 103.417969 " clip-rule="nonzero"/></clipPath><linearGradient x1="326.318525" gradientTransform="matrix(0.699819, 0, 0, 0.70006, 12.434315, 13.45542)" y1="53.940728" x2="320.082888" gradientUnits="userSpaceOnUse" y2="499.755387" id="id6"><stop stop-opacity="1" stop-color="rgb(76.501465%, 0.463867%, 32.737732%)" offset="0"/><stop stop-opacity="1" stop-color="rgb(76.35498%, 0.526428%, 32.71637%)" offset="0.0119031"/><stop stop-opacity="1" stop-color="rgb(76.208496%, 0.588989%, 32.695007%)" offset="0.015625"/><stop stop-opacity="1" stop-color="rgb(76.062012%, 0.650024%, 32.673645%)" offset="0.03125"/><stop stop-opacity="1" stop-color="rgb(75.767517%, 0.775146%, 32.63092%)" offset="0.046875"/><stop stop-opacity="1" stop-color="rgb(75.474548%, 0.898743%, 32.58667%)" offset="0.0625"/><stop stop-opacity="1" stop-color="rgb(75.18158%, 1.023865%, 32.543945%)" offset="0.078125"/><stop stop-opacity="1" stop-color="rgb(74.887085%, 1.148987%, 32.501221%)" offset="0.09375"/><stop stop-opacity="1" stop-color="rgb(74.594116%, 1.272583%, 32.458496%)" offset="0.109375"/><stop stop-opacity="1" stop-color="rgb(74.301147%, 1.397705%, 32.415771%)" offset="0.125"/><stop stop-opacity="1" stop-color="rgb(74.006653%, 1.521301%, 32.371521%)" offset="0.140625"/><stop stop-opacity="1" stop-color="rgb(73.713684%, 1.646423%, 32.328796%)" offset="0.15625"/><stop stop-opacity="1" stop-color="rgb(73.420715%, 1.77002%, 32.286072%)" offset="0.171875"/><stop stop-opacity="1" stop-color="rgb(73.127747%, 1.895142%, 32.243347%)" offset="0.1875"/><stop stop-opacity="1" stop-color="rgb(72.833252%, 2.018738%, 32.199097%)" offset="0.203125"/><stop stop-opacity="1" stop-color="rgb(72.540283%, 2.14386%, 32.156372%)" offset="0.21875"/><stop stop-opacity="1" stop-color="rgb(72.247314%, 2.267456%, 32.113647%)" offset="0.234375"/><stop stop-opacity="1" stop-color="rgb(71.95282%, 2.392578%, 32.070923%)" offset="0.25"/><stop stop-opacity="1" stop-color="rgb(71.659851%, 2.516174%, 32.028198%)" offset="0.265625"/><stop stop-opacity="1" stop-color="rgb(71.366882%, 2.641296%, 31.983948%)" offset="0.28125"/><stop stop-opacity="1" stop-color="rgb(71.073914%, 2.764893%, 31.941223%)" offset="0.296875"/><stop stop-opacity="1" stop-color="rgb(70.779419%, 2.890015%, 31.898499%)" offset="0.3125"/><stop stop-opacity="1" stop-color="rgb(70.48645%, 3.013611%, 31.855774%)" offset="0.328125"/><stop stop-opacity="1" stop-color="rgb(70.193481%, 3.138733%, 31.813049%)" offset="0.34375"/><stop stop-opacity="1" stop-color="rgb(69.898987%, 3.262329%, 31.768799%)" offset="0.359375"/><stop stop-opacity="1" stop-color="rgb(69.606018%, 3.387451%, 31.726074%)" offset="0.375"/><stop stop-opacity="1" stop-color="rgb(69.313049%, 3.511047%, 31.68335%)" offset="0.390625"/><stop stop-opacity="1" stop-color="rgb(69.020081%, 3.636169%, 31.640625%)" offset="0.40625"/><stop stop-opacity="1" stop-color="rgb(68.725586%, 3.759766%, 31.596375%)" offset="0.421875"/><stop stop-opacity="1" stop-color="rgb(68.432617%, 3.884888%, 31.55365%)" offset="0.4375"/><stop stop-opacity="1" stop-color="rgb(68.139648%, 4.008484%, 31.510925%)" offset="0.453125"/><stop stop-opacity="1" stop-color="rgb(67.845154%, 4.133606%, 31.468201%)" offset="0.46875"/><stop stop-opacity="1" stop-color="rgb(67.552185%, 4.257202%, 31.425476%)" offset="0.484375"/><stop stop-opacity="1" stop-color="rgb(67.259216%, 4.382324%, 31.381226%)" offset="0.5"/><stop stop-opacity="1" stop-color="rgb(66.966248%, 4.50592%, 31.338501%)" offset="0.515625"/><stop stop-opacity="1" stop-color="rgb(66.671753%, 4.631042%, 31.295776%)" offset="0.53125"/><stop stop-opacity="1" stop-color="rgb(66.378784%, 4.754639%, 31.253052%)" offset="0.546875"/><stop stop-opacity="1" stop-color="rgb(66.085815%, 4.879761%, 31.208801%)" offset="0.5625"/><stop stop-opacity="1" stop-color="rgb(65.791321%, 5.003357%, 31.166077%)" offset="0.578125"/><stop stop-opacity="1" stop-color="rgb(65.498352%, 5.128479%, 31.123352%)" offset="0.59375"/><stop stop-opacity="1" stop-color="rgb(65.205383%, 5.252075%, 31.080627%)" offset="0.609375"/><stop stop-opacity="1" stop-color="rgb(64.910889%, 5.377197%, 31.037903%)" offset="0.625"/><stop stop-opacity="1" stop-color="rgb(64.61792%, 5.502319%, 30.993652%)" offset="0.640625"/><stop stop-opacity="1" stop-color="rgb(64.324951%, 5.625916%, 30.950928%)" offset="0.65625"/><stop stop-opacity="1" stop-color="rgb(64.031982%, 5.751038%, 30.908203%)" offset="0.671875"/><stop stop-opacity="1" stop-color="rgb(63.737488%, 5.874634%, 30.865479%)" offset="0.6875"/><stop stop-opacity="1" stop-color="rgb(63.444519%, 5.999756%, 30.822754%)" offset="0.703125"/><stop stop-opacity="1" stop-color="rgb(63.15155%, 6.123352%, 30.778503%)" offset="0.71875"/><stop stop-opacity="1" stop-color="rgb(62.857056%, 6.248474%, 30.735779%)" offset="0.734375"/><stop stop-opacity="1" stop-color="rgb(62.564087%, 6.37207%, 30.693054%)" offset="0.75"/><stop stop-opacity="1" stop-color="rgb(62.271118%, 6.497192%, 30.65033%)" offset="0.765625"/><stop stop-opacity="1" stop-color="rgb(61.978149%, 6.620789%, 30.606079%)" offset="0.78125"/><stop stop-opacity="1" stop-color="rgb(61.683655%, 6.745911%, 30.563354%)" offset="0.796875"/><stop stop-opacity="1" stop-color="rgb(61.390686%, 6.869507%, 30.52063%)" offset="0.8125"/><stop stop-opacity="1" stop-color="rgb(61.097717%, 6.994629%, 30.477905%)" offset="0.828125"/><stop stop-opacity="1" stop-color="rgb(60.803223%, 7.118225%, 30.435181%)" offset="0.84375"/><stop stop-opacity="1" stop-color="rgb(60.510254%, 7.243347%, 30.39093%)" offset="0.859375"/><stop stop-opacity="1" stop-color="rgb(60.217285%, 7.366943%, 30.348206%)" offset="0.875"/><stop stop-opacity="1" stop-color="rgb(59.924316%, 7.492065%, 30.305481%)" offset="0.890625"/><stop stop-opacity="1" stop-color="rgb(59.629822%, 7.615662%, 30.262756%)" offset="0.90625"/><stop stop-opacity="1" stop-color="rgb(59.341431%, 7.737732%, 30.220032%)" offset="0.9375"/><stop stop-opacity="1" stop-color="rgb(59.199524%, 7.798767%, 30.198669%)" offset="0.988097"/><stop stop-opacity="1" stop-color="rgb(59.199524%, 7.798767%, 30.198669%)" offset="1"/></linearGradient><clipPath id="id7"><path d="M 142 41 L 233 41 L 233 132 L 142 132 Z M 142 41 " clip-rule="nonzero"/></clipPath><clipPath id="id8"><path d="M 232.328125 86.746094 C 232.328125 88.21875 232.257812 89.6875 232.113281 91.152344 C 231.96875 92.617188 231.75 94.070312 231.464844 95.515625 C 231.175781 96.960938 230.820312 98.386719 230.394531 99.796875 C 229.964844 101.203125 229.46875 102.589844 228.90625 103.949219 C 228.34375 105.308594 227.714844 106.636719 227.023438 107.9375 C 226.328125 109.234375 225.570312 110.496094 224.753906 111.722656 C 223.9375 112.945312 223.0625 114.125 222.128906 115.265625 C 221.195312 116.402344 220.207031 117.492188 219.164062 118.53125 C 218.125 119.574219 217.035156 120.5625 215.898438 121.496094 C 214.761719 122.429688 213.578125 123.304688 212.355469 124.125 C 211.132812 124.941406 209.871094 125.699219 208.574219 126.390625 C 207.273438 127.085938 205.945312 127.714844 204.585938 128.277344 C 203.226562 128.839844 201.84375 129.335938 200.433594 129.765625 C 199.027344 130.191406 197.601562 130.546875 196.15625 130.835938 C 194.710938 131.125 193.257812 131.339844 191.792969 131.484375 C 190.328125 131.628906 188.859375 131.699219 187.390625 131.699219 C 185.917969 131.699219 184.449219 131.628906 182.984375 131.484375 C 181.519531 131.339844 180.066406 131.125 178.621094 130.835938 C 177.179688 130.546875 175.753906 130.191406 174.34375 129.765625 C 172.9375 129.335938 171.550781 128.839844 170.191406 128.277344 C 168.832031 127.714844 167.503906 127.085938 166.207031 126.390625 C 164.90625 125.699219 163.644531 124.941406 162.421875 124.125 C 161.199219 123.304688 160.019531 122.429688 158.878906 121.496094 C 157.742188 120.5625 156.652344 119.574219 155.613281 118.53125 C 154.570312 117.492188 153.585938 116.402344 152.652344 115.265625 C 151.71875 114.125 150.839844 112.945312 150.023438 111.722656 C 149.207031 110.496094 148.449219 109.234375 147.757812 107.9375 C 147.0625 106.636719 146.433594 105.308594 145.871094 103.949219 C 145.308594 102.589844 144.8125 101.203125 144.386719 99.796875 C 143.957031 98.386719 143.601562 96.960938 143.3125 95.515625 C 143.027344 94.070312 142.8125 92.617188 142.667969 91.152344 C 142.523438 89.6875 142.449219 88.21875 142.449219 86.746094 C 142.449219 85.273438 142.523438 83.804688 142.667969 82.339844 C 142.8125 80.875 143.027344 79.417969 143.3125 77.976562 C 143.601562 76.53125 143.957031 75.105469 144.386719 73.695312 C 144.8125 72.285156 145.308594 70.902344 145.871094 69.542969 C 146.433594 68.183594 147.0625 66.851562 147.757812 65.554688 C 148.449219 64.253906 149.207031 62.996094 150.023438 61.769531 C 150.839844 60.546875 151.71875 59.363281 152.652344 58.226562 C 153.585938 57.089844 154.570312 56 155.613281 54.957031 C 156.652344 53.917969 157.742188 52.929688 158.878906 51.996094 C 160.019531 51.0625 161.199219 50.183594 162.421875 49.367188 C 163.644531 48.550781 164.90625 47.792969 166.207031 47.097656 C 167.503906 46.40625 168.832031 45.777344 170.191406 45.214844 C 171.550781 44.648438 172.9375 44.152344 174.34375 43.726562 C 175.753906 43.300781 177.179688 42.941406 178.621094 42.65625 C 180.066406 42.367188 181.519531 42.152344 182.984375 42.007812 C 184.449219 41.863281 185.917969 41.792969 187.390625 41.792969 C 188.859375 41.792969 190.328125 41.863281 191.792969 42.007812 C 193.257812 42.152344 194.710938 42.367188 196.15625 42.65625 C 197.601562 42.941406 199.027344 43.300781 200.433594 43.726562 C 201.84375 44.152344 203.226562 44.648438 204.585938 45.214844 C 205.945312 45.777344 207.273438 46.40625 208.574219 47.097656 C 209.871094 47.792969 211.132812 48.550781 212.355469 49.367188 C 213.578125 50.183594 214.761719 51.0625 215.898438 51.996094 C 217.035156 52.929688 218.125 53.917969 219.164062 54.957031 C 220.207031 56 221.195312 57.089844 222.128906 58.226562 C 223.0625 59.363281 223.9375 60.546875 224.753906 61.769531 C 225.570312 62.996094 226.328125 64.253906 227.023438 65.554688 C 227.714844 66.851562 228.34375 68.183594 228.90625 69.542969 C 229.46875 70.902344 229.964844 72.285156 230.394531 73.695312 C 230.820312 75.105469 231.175781 76.53125 231.464844 77.976562 C 231.75 79.417969 231.96875 80.875 232.113281 82.339844 C 232.257812 83.804688 232.328125 85.273438 232.328125 86.746094 Z M 232.328125 86.746094 " clip-rule="nonzero"/></clipPath><linearGradient x1="250.910448" gradientTransform="matrix(0.699819, 0, 0, 0.70006, 12.434315, 13.45542)" y1="39.590536" x2="249.089323" gradientUnits="userSpaceOnUse" y2="169.79142" id="id9"><stop stop-opacity="1" stop-color="rgb(77.061462%, 0.227356%, 32.820129%)" offset="0"/><stop stop-opacity="1" stop-color="rgb(76.889038%, 0.299072%, 32.794189%)" offset="0.0137941"/><stop stop-opacity="1" stop-color="rgb(76.71814%, 0.372314%, 32.769775%)" offset="0.0625"/><stop stop-opacity="1" stop-color="rgb(76.547241%, 0.444031%, 32.743835%)" offset="0.125"/><stop stop-opacity="1" stop-color="rgb(76.203918%, 0.590515%, 32.693481%)" offset="0.1875"/><stop stop-opacity="1" stop-color="rgb(75.862122%, 0.735474%, 32.643127%)" offset="0.25"/><stop stop-opacity="1" stop-color="rgb(75.518799%, 0.880432%, 32.592773%)" offset="0.3125"/><stop stop-opacity="1" stop-color="rgb(75.175476%, 1.025391%, 32.542419%)" offset="0.375"/><stop stop-opacity="1" stop-color="rgb(74.833679%, 1.170349%, 32.492065%)" offset="0.4375"/><stop stop-opacity="1" stop-color="rgb(74.490356%, 1.316833%, 32.441711%)" offset="0.5"/><stop stop-opacity="1" stop-color="rgb(74.147034%, 1.461792%, 32.391357%)" offset="0.5625"/><stop stop-opacity="1" stop-color="rgb(73.805237%, 1.60675%, 32.342529%)" offset="0.625"/><stop stop-opacity="1" stop-color="rgb(73.461914%, 1.751709%, 32.292175%)" offset="0.6875"/><stop stop-opacity="1" stop-color="rgb(73.118591%, 1.898193%, 32.241821%)" offset="0.75"/><stop stop-opacity="1" stop-color="rgb(72.776794%, 2.043152%, 32.191467%)" offset="0.8125"/><stop stop-opacity="1" stop-color="rgb(72.433472%, 2.18811%, 32.141113%)" offset="0.875"/><stop stop-opacity="1" stop-color="rgb(72.091675%, 2.333069%, 32.090759%)" offset="0.9375"/><stop stop-opacity="1" stop-color="rgb(71.748352%, 2.478027%, 32.040405%)" offset="0.986206"/><stop stop-opacity="1" stop-color="rgb(71.577454%, 2.55127%, 32.015991%)" offset="1"/></linearGradient><clipPath id="id10"><path d="M 97 13.457031 L 143 13.457031 L 143 59 L 97 59 Z M 97 13.457031 " clip-rule="nonzero"/></clipPath><clipPath id="id11"><path d="M 142.449219 35.933594 C 142.449219 36.667969 142.414062 37.402344 142.34375 38.136719 C 142.269531 38.867188 142.164062 39.59375 142.019531 40.316406 C 141.875 41.039062 141.695312 41.753906 141.484375 42.457031 C 141.269531 43.160156 141.023438 43.855469 140.738281 44.535156 C 140.457031 45.214844 140.144531 45.878906 139.796875 46.527344 C 139.449219 47.175781 139.074219 47.808594 138.664062 48.417969 C 138.253906 49.03125 137.816406 49.621094 137.351562 50.191406 C 136.882812 50.761719 136.390625 51.304688 135.871094 51.824219 C 135.347656 52.347656 134.804688 52.839844 134.234375 53.308594 C 133.667969 53.773438 133.078125 54.210938 132.464844 54.621094 C 131.851562 55.03125 131.222656 55.40625 130.574219 55.753906 C 129.925781 56.101562 129.257812 56.417969 128.578125 56.699219 C 127.898438 56.980469 127.207031 57.226562 126.503906 57.441406 C 125.800781 57.65625 125.085938 57.832031 124.363281 57.976562 C 123.644531 58.121094 122.914062 58.230469 122.183594 58.300781 C 121.453125 58.371094 120.71875 58.410156 119.980469 58.410156 C 119.246094 58.410156 118.511719 58.371094 117.777344 58.300781 C 117.046875 58.230469 116.320312 58.121094 115.597656 57.976562 C 114.875 57.832031 114.164062 57.65625 113.457031 57.441406 C 112.753906 57.226562 112.0625 56.980469 111.382812 56.699219 C 110.703125 56.417969 110.039062 56.101562 109.390625 55.753906 C 108.742188 55.40625 108.109375 55.03125 107.496094 54.621094 C 106.886719 54.210938 106.296875 53.773438 105.726562 53.308594 C 105.15625 52.839844 104.613281 52.347656 104.09375 51.824219 C 103.574219 51.304688 103.078125 50.761719 102.613281 50.191406 C 102.144531 49.621094 101.707031 49.03125 101.296875 48.417969 C 100.890625 47.808594 100.511719 47.175781 100.164062 46.527344 C 99.816406 45.878906 99.503906 45.214844 99.222656 44.535156 C 98.941406 43.855469 98.691406 43.160156 98.480469 42.457031 C 98.265625 41.753906 98.085938 41.039062 97.945312 40.316406 C 97.800781 39.59375 97.691406 38.867188 97.621094 38.136719 C 97.546875 37.402344 97.511719 36.667969 97.511719 35.933594 C 97.511719 35.195312 97.546875 34.460938 97.621094 33.730469 C 97.691406 32.996094 97.800781 32.269531 97.945312 31.546875 C 98.085938 30.824219 98.265625 30.113281 98.480469 29.40625 C 98.691406 28.703125 98.941406 28.011719 99.222656 27.332031 C 99.503906 26.652344 99.816406 25.984375 100.164062 25.335938 C 100.511719 24.6875 100.890625 24.058594 101.296875 23.445312 C 101.707031 22.832031 102.144531 22.242188 102.613281 21.671875 C 103.078125 21.105469 103.574219 20.558594 104.09375 20.039062 C 104.613281 19.519531 105.15625 19.023438 105.726562 18.558594 C 106.296875 18.089844 106.886719 17.652344 107.496094 17.242188 C 108.109375 16.835938 108.742188 16.457031 109.390625 16.109375 C 110.039062 15.761719 110.703125 15.449219 111.382812 15.167969 C 112.0625 14.882812 112.753906 14.636719 113.457031 14.421875 C 114.164062 14.210938 114.875 14.03125 115.597656 13.886719 C 116.320312 13.742188 117.046875 13.636719 117.777344 13.5625 C 118.511719 13.492188 119.246094 13.457031 119.980469 13.457031 C 120.71875 13.457031 121.453125 13.492188 122.183594 13.5625 C 122.914062 13.636719 123.644531 13.742188 124.363281 13.886719 C 125.085938 14.03125 125.800781 14.210938 126.503906 14.421875 C 127.207031 14.636719 127.898438 14.882812 128.578125 15.167969 C 129.257812 15.449219 129.925781 15.761719 130.574219 16.109375 C 131.222656 16.457031 131.851562 16.835938 132.464844 17.242188 C 133.078125 17.652344 133.667969 18.089844 134.234375 18.558594 C 134.804688 19.023438 135.347656 19.519531 135.871094 20.039062 C 136.390625 20.558594 136.882812 21.105469 137.351562 21.671875 C 137.816406 22.242188 138.253906 22.832031 138.664062 23.445312 C 139.074219 24.058594 139.449219 24.6875 139.796875 25.335938 C 140.144531 25.984375 140.457031 26.652344 140.738281 27.332031 C 141.023438 28.011719 141.269531 28.703125 141.484375 29.40625 C 141.695312 30.113281 141.875 30.824219 142.019531 31.546875 C 142.164062 32.269531 142.269531 32.996094 142.34375 33.730469 C 142.414062 34.460938 142.449219 35.195312 142.449219 35.933594 Z M 142.449219 35.933594 " clip-rule="nonzero"/></clipPath><linearGradient x1="154.133295" gradientTransform="matrix(0.699819, 0, 0, 0.70006, 12.434315, 13.45542)" y1="-0.442667" x2="153.222896" gradientUnits="userSpaceOnUse" y2="64.656614" id="id12"><stop stop-opacity="1" stop-color="rgb(77.598572%, 0%, 32.899475%)" offset="0"/><stop stop-opacity="1" stop-color="rgb(77.458191%, 0.0579834%, 32.878113%)" offset="0.0137919"/><stop stop-opacity="1" stop-color="rgb(77.319336%, 0.117493%, 32.858276%)" offset="0.5"/><stop stop-opacity="1" stop-color="rgb(77.146912%, 0.189209%, 32.832336%)" offset="0.625"/><stop stop-opacity="1" stop-color="rgb(76.805115%, 0.335693%, 32.781982%)" offset="0.75"/><stop stop-opacity="1" stop-color="rgb(76.461792%, 0.480652%, 32.731628%)" offset="0.875"/><stop stop-opacity="1" stop-color="rgb(76.119995%, 0.62561%, 32.681274%)" offset="0.986208"/><stop stop-opacity="1" stop-color="rgb(75.949097%, 0.698853%, 32.65686%)" offset="1"/></linearGradient><clipPath id="id13"><path d="M 232 13.457031 L 278 13.457031 L 278 59 L 232 59 Z M 232 13.457031 " clip-rule="nonzero"/></clipPath><clipPath id="id14"><path d="M 277.265625 35.933594 C 277.265625 36.667969 277.230469 37.402344 277.15625 38.136719 C 277.085938 38.867188 276.976562 39.59375 276.835938 40.316406 C 276.691406 41.039062 276.511719 41.753906 276.296875 42.457031 C 276.085938 43.160156 275.835938 43.855469 275.554688 44.535156 C 275.273438 45.214844 274.960938 45.878906 274.613281 46.527344 C 274.265625 47.175781 273.886719 47.808594 273.480469 48.417969 C 273.070312 49.03125 272.632812 49.621094 272.167969 50.191406 C 271.699219 50.761719 271.207031 51.304688 270.683594 51.824219 C 270.164062 52.347656 269.621094 52.839844 269.050781 53.308594 C 268.484375 53.773438 267.890625 54.210938 267.28125 54.621094 C 266.667969 55.03125 266.039062 55.40625 265.390625 55.753906 C 264.738281 56.101562 264.074219 56.417969 263.394531 56.699219 C 262.714844 56.980469 262.023438 57.226562 261.320312 57.441406 C 260.617188 57.65625 259.902344 57.832031 259.179688 57.976562 C 258.457031 58.121094 257.730469 58.230469 257 58.300781 C 256.265625 58.371094 255.53125 58.410156 254.796875 58.410156 C 254.0625 58.410156 253.328125 58.371094 252.59375 58.300781 C 251.863281 58.230469 251.136719 58.121094 250.414062 57.976562 C 249.691406 57.832031 248.980469 57.65625 248.273438 57.441406 C 247.570312 57.226562 246.878906 56.980469 246.199219 56.699219 C 245.519531 56.417969 244.855469 56.101562 244.207031 55.753906 C 243.554688 55.40625 242.925781 55.03125 242.3125 54.621094 C 241.703125 54.210938 241.113281 53.773438 240.542969 53.308594 C 239.972656 52.839844 239.429688 52.347656 238.910156 51.824219 C 238.390625 51.304688 237.894531 50.761719 237.429688 50.191406 C 236.960938 49.621094 236.523438 49.03125 236.113281 48.417969 C 235.707031 47.808594 235.328125 47.175781 234.980469 46.527344 C 234.632812 45.878906 234.320312 45.214844 234.039062 44.535156 C 233.757812 43.855469 233.507812 43.160156 233.296875 42.457031 C 233.082031 41.753906 232.902344 41.039062 232.761719 40.316406 C 232.617188 39.59375 232.507812 38.867188 232.4375 38.136719 C 232.363281 37.402344 232.328125 36.667969 232.328125 35.933594 C 232.328125 35.195312 232.363281 34.460938 232.4375 33.730469 C 232.507812 32.996094 232.617188 32.269531 232.761719 31.546875 C 232.902344 30.824219 233.082031 30.113281 233.296875 29.40625 C 233.507812 28.703125 233.757812 28.011719 234.039062 27.332031 C 234.320312 26.652344 234.632812 25.984375 234.980469 25.335938 C 235.328125 24.6875 235.707031 24.058594 236.113281 23.445312 C 236.523438 22.832031 236.960938 22.242188 237.429688 21.671875 C 237.894531 21.105469 238.390625 20.558594 238.910156 20.039062 C 239.429688 19.519531 239.972656 19.023438 240.542969 18.558594 C 241.113281 18.089844 241.703125 17.652344 242.3125 17.242188 C 242.925781 16.835938 243.554688 16.457031 244.207031 16.109375 C 244.855469 15.761719 245.519531 15.449219 246.199219 15.167969 C 246.878906 14.882812 247.570312 14.636719 248.273438 14.421875 C 248.980469 14.210938 249.691406 14.03125 250.414062 13.886719 C 251.136719 13.742188 251.863281 13.636719 252.59375 13.5625 C 253.328125 13.492188 254.0625 13.457031 254.796875 13.457031 C 255.53125 13.457031 256.265625 13.492188 257 13.5625 C 257.730469 13.636719 258.457031 13.742188 259.179688 13.886719 C 259.902344 14.03125 260.617188 14.210938 261.320312 14.421875 C 262.023438 14.636719 262.714844 14.882812 263.394531 15.167969 C 264.074219 15.449219 264.738281 15.761719 265.390625 16.109375 C 266.039062 16.457031 266.667969 16.835938 267.28125 17.242188 C 267.890625 17.652344 268.484375 18.089844 269.050781 18.558594 C 269.621094 19.023438 270.164062 19.519531 270.683594 20.039062 C 271.207031 20.558594 271.699219 21.105469 272.167969 21.671875 C 272.632812 22.242188 273.070312 22.832031 273.480469 23.445312 C 273.886719 24.058594 274.265625 24.6875 274.613281 25.335938 C 274.960938 25.984375 275.273438 26.652344 275.554688 27.332031 C 275.835938 28.011719 276.085938 28.703125 276.296875 29.40625 C 276.511719 30.113281 276.691406 30.824219 276.835938 31.546875 C 276.976562 32.269531 277.085938 32.996094 277.15625 33.730469 C 277.230469 34.460938 277.265625 35.195312 277.265625 35.933594 Z M 277.265625 35.933594 " clip-rule="nonzero"/></clipPath><linearGradient x1="346.776984" gradientTransform="matrix(0.699819, 0, 0, 0.70006, 12.434315, 13.45542)" y1="-0.442672" x2="345.866585" gradientUnits="userSpaceOnUse" y2="64.65661" id="id15"><stop stop-opacity="1" stop-color="rgb(77.598572%, 0%, 32.899475%)" offset="0"/><stop stop-opacity="1" stop-color="rgb(77.514648%, 0.0350952%, 32.887268%)" offset="0.0137919"/><stop stop-opacity="1" stop-color="rgb(77.432251%, 0.0701904%, 32.875061%)" offset="0.5"/><stop stop-opacity="1" stop-color="rgb(77.261353%, 0.141907%, 32.849121%)" offset="0.625"/><stop stop-opacity="1" stop-color="rgb(76.91803%, 0.286865%, 32.798767%)" offset="0.75"/><stop stop-opacity="1" stop-color="rgb(76.576233%, 0.431824%, 32.748413%)" offset="0.875"/><stop stop-opacity="1" stop-color="rgb(76.23291%, 0.578308%, 32.698059%)" offset="0.986208"/><stop stop-opacity="1" stop-color="rgb(76.062012%, 0.65155%, 32.673645%)" offset="1"/></linearGradient></defs><g clip-path="url(#id1)"><g clip-path="url(#id2)"><path fill="url(#id3)" d="M 5.644531 53.011719 L 5.644531 353.96875 L 164.964844 353.96875 L 164.964844 53.011719 Z M 5.644531 53.011719 " fill-rule="nonzero"/></g></g><g clip-path="url(#id4)"><g clip-path="url(#id5)"><path fill="url(#id6)" d="M 103.574219 53.011719 L 103.574219 361.457031 L 369.132812 361.457031 L 369.132812 53.011719 Z M 103.574219 53.011719 " fill-rule="nonzero"/></g></g><g clip-path="url(#id7)"><g clip-path="url(#id8)"><path fill="url(#id9)" d="M 142.449219 41.792969 L 142.449219 131.699219 L 232.328125 131.699219 L 232.328125 41.792969 Z M 142.449219 41.792969 " fill-rule="nonzero"/></g></g><g clip-path="url(#id10)"><g clip-path="url(#id11)"><path fill="url(#id12)" d="M 97.511719 13.457031 L 97.511719 58.410156 L 142.449219 58.410156 L 142.449219 13.457031 Z M 97.511719 13.457031 " fill-rule="nonzero"/></g></g><g clip-path="url(#id13)"><g clip-path="url(#id14)"><path fill="url(#id15)" d="M 232.328125 13.457031 L 232.328125 58.410156 L 277.265625 58.410156 L 277.265625 13.457031 Z M 232.328125 13.457031 " fill-rule="nonzero"/></g></g></svg>